<svg clip-rule="evenodd" fill-rule="evenodd" stroke-linejoin="round" stroke-miterlimit="2" viewBox="0 0 24 24" xmlns="http://www.w3.org/2000/svg"><path d="m20.998 8.498h-17.996c-.569 0-1.001.464-1.001.999 0 .118-.105-.582 1.694 10.659.077.486.496.842.988.842h14.635c.492 0 .911-.356.988-.842 1.801-11.25 1.693-10.54 1.693-10.66 0-.558-.456-.998-1.001-.998zm-.964-3.017h-16.03c-.524 0-1.001.422-1.001 1.007 0 .081-.01.016.14 1.01h17.752c.152-1.012.139-.931.139-1.009 0-.58-.469-1.008-1-1.008zm-15.973-1h15.916c.058-.436.055-.426.055-.482 0-.671-.575-1.001-1.001-1.001h-14.024c-.536 0-1.001.433-1.001 1 0 .056-.004.043.055.483z" fill-rule="nonzero"/></svg>